<?xml version="1.0" encoding="utf-8"?>
<!-- Generator: Adobe Illustrator 23.0.3, SVG Export Plug-In . SVG Version: 6.00 Build 0)  -->
<svg version="1.1" id="Layer_1" xmlns="http://www.w3.org/2000/svg" xmlns:xlink="http://www.w3.org/1999/xlink" x="0px" y="0px"
	 viewBox="0 0 1920 1080" style="enable-background:new 0 0 1920 1080;" xml:space="preserve">
<style type="text/css">
	.st0{fill:#A2A3A0;}
	.st1{fill:#3E92CC;}
	.st2{fill:#0C7489;}
</style>
<g>
	<path class="st0" d="M-1083.9,529.67l-0.35-208.09l-101.79,175.79h-8.68l-101.79-175.09v207.39h-17.37V286.5h14.93l108.73,187.94
		l108.74-187.94h14.59l0.34,243.17H-1083.9z"/>
	<path class="st0" d="M-943.21,515.26c-19.23-10.77-34.34-25.54-45.34-44.29c-11-18.77-16.5-39.71-16.5-62.88
		c0-23.15,5.5-44.12,16.5-62.87c11-18.77,26.11-33.52,45.34-44.3c19.22-10.77,40.76-16.16,64.61-16.16
		c23.85,0,45.38,5.33,64.61,15.98c19.22,10.65,34.33,25.36,45.33,44.12c11,18.77,16.5,39.85,16.5,63.23
		c0,23.39-5.51,44.47-16.5,63.23c-11,18.77-26.12,33.46-45.33,44.12c-19.23,10.67-40.77,15.98-64.61,15.98
		C-902.45,531.4-924,526.03-943.21,515.26z M-823.37,501.19c16.44-9.26,29.41-22.07,38.91-38.39c9.5-16.34,14.25-34.57,14.25-54.72
		c0-20.14-4.75-38.39-14.25-54.71c-9.5-16.32-22.47-29.12-38.91-38.39c-16.44-9.26-34.86-13.89-55.23-13.89
		c-20.39,0-38.86,4.62-55.41,13.89c-16.56,9.26-29.59,22.07-39.08,38.39c-9.5,16.32-14.25,34.57-14.25,54.71
		c0,20.16,4.74,38.39,14.25,54.72c9.49,16.32,22.52,29.12,39.08,38.39c16.55,9.26,35.02,13.89,55.41,13.89
		C-858.23,515.08-839.81,510.46-823.37,501.19z"/>
	<path class="st0" d="M-652.1,515.26c-19.23-10.77-34.34-25.54-45.34-44.29c-11-18.77-16.5-39.71-16.5-62.88
		c0-23.15,5.5-44.12,16.5-62.87c11-18.77,26.11-33.52,45.34-44.3c19.22-10.77,40.76-16.16,64.61-16.16
		c23.85,0,45.38,5.33,64.61,15.98c19.22,10.65,34.33,25.36,45.33,44.12c11,18.77,16.5,39.85,16.5,63.23
		c0,23.39-5.51,44.47-16.5,63.23c-11,18.77-26.12,33.46-45.33,44.12c-19.23,10.67-40.77,15.98-64.61,15.98
		C-611.34,531.4-632.88,526.03-652.1,515.26z M-532.25,501.19c16.44-9.26,29.41-22.07,38.91-38.39
		c9.5-16.34,14.25-34.57,14.25-54.72c0-20.14-4.75-38.39-14.25-54.71c-9.5-16.32-22.47-29.12-38.91-38.39s-34.86-13.89-55.23-13.89
		c-20.39,0-38.86,4.62-55.41,13.89c-16.56,9.26-29.59,22.07-39.08,38.39c-9.5,16.32-14.25,34.57-14.25,54.71
		c0,20.16,4.74,38.39,14.25,54.72c9.49,16.32,22.52,29.12,39.08,38.39c16.55,9.26,35.02,13.89,55.41,13.89
		C-567.11,515.08-548.69,510.46-532.25,501.19z"/>
	<path class="st0" d="M-201.54,286.5v243.17h-14.59l-165.7-211.21v211.21h-17.72V286.5h14.93l165.36,211.21V286.5H-201.54z"/>
	<path class="st0" d="M-1188.92,724.42c6.02,6.87,9.03,15.78,9.03,26.75c0,13.57-4.96,24.01-14.87,31.33
		c-9.91,7.32-24.62,10.98-44.14,10.98h-71.35V633.4h66.78c17.38,0,30.91,3.54,40.59,10.63c9.68,7.09,14.52,17.2,14.52,30.31
		c0,9.14-2.4,16.84-7.2,23.09c-4.8,6.26-11.32,10.75-19.55,13.5C-1203.68,713.07-1194.95,717.55-1188.92,724.42z M-1298.58,643.46
		v63.81h54.66c14.03,0,24.81-2.71,32.36-8.12c7.55-5.41,11.32-13.38,11.32-23.9c0-10.37-3.78-18.26-11.32-23.67
		c-7.54-5.41-18.33-8.12-32.36-8.12H-1298.58z M-1203.56,775.31c8-5.41,12.01-13.76,12.01-25.05c0-11.28-4-19.58-12.01-24.93
		c-8-5.33-19.78-8-35.33-8h-59.69v66.09h59.69C-1223.34,783.42-1211.57,780.72-1203.56,775.31z"/>
	<path class="st0" d="M-1039.24,748.43h-92.85l-20.36,45.05h-12.58l73.64-160.09h11.66l73.64,160.09h-12.58L-1039.24,748.43z
		 M-1043.59,738.6l-42.08-92.39l-41.86,92.39H-1043.59z"/>
	<path class="st0" d="M-977.04,633.4h11.66v149.57h92.16v10.52h-103.83V633.4z"/>
	<path class="st0" d="M-843.25,633.4h11.66v149.57h92.16v10.52h-103.83V633.4z"/>
	<path class="st0" d="M-687.27,784c-12.66-7.09-22.61-16.82-29.85-29.16c-7.24-12.36-10.86-26.15-10.86-41.4
		c0-15.24,3.62-29.04,10.86-41.39c7.24-12.36,17.19-22.07,29.85-29.16c12.65-7.09,26.83-10.64,42.54-10.64
		c15.7,0,29.88,3.51,42.54,10.52c12.65,7.01,22.6,16.7,29.84,29.04c7.24,12.36,10.86,26.23,10.86,41.63
		c0,15.4-3.62,29.28-10.86,41.63c-7.24,12.36-17.19,22.03-29.84,29.04c-12.66,7.02-26.84,10.52-42.54,10.52
		C-660.44,794.63-674.62,791.09-687.27,784z M-608.37,774.74c10.82-6.1,19.36-14.53,25.62-25.27c6.25-10.75,9.38-22.76,9.38-36.03
		c0-13.26-3.13-25.27-9.38-36.02c-6.25-10.75-14.79-19.17-25.62-25.27c-10.82-6.1-22.95-9.14-36.36-9.14
		c-13.42,0-25.58,3.04-36.48,9.14c-10.9,6.1-19.48,14.53-25.73,25.27c-6.26,10.75-9.38,22.76-9.38,36.02
		c0,13.27,3.12,25.27,9.38,36.03c6.25,10.75,14.83,19.17,25.73,25.27c10.9,6.1,23.06,9.14,36.48,9.14
		C-631.32,783.88-619.19,780.84-608.37,774.74z"/>
	<path class="st0" d="M-495.62,784c-12.66-7.09-22.61-16.82-29.85-29.16c-7.24-12.36-10.86-26.15-10.86-41.4
		c0-15.24,3.62-29.04,10.86-41.39c7.24-12.36,17.19-22.07,29.85-29.16c12.65-7.09,26.83-10.64,42.54-10.64
		c15.7,0,29.88,3.51,42.54,10.52c12.65,7.01,22.6,16.7,29.84,29.04c7.24,12.36,10.86,26.23,10.86,41.63
		c0,15.4-3.62,29.28-10.86,41.63c-7.24,12.36-17.19,22.03-29.84,29.04c-12.66,7.02-26.84,10.52-42.54,10.52
		C-468.79,794.63-482.97,791.09-495.62,784z M-416.72,774.74c10.82-6.1,19.36-14.53,25.62-25.27c6.25-10.75,9.38-22.76,9.38-36.03
		c0-13.26-3.13-25.27-9.38-36.02c-6.25-10.75-14.79-19.17-25.62-25.27c-10.82-6.1-22.95-9.14-36.36-9.14
		c-13.42,0-25.58,3.04-36.48,9.14c-10.9,6.1-19.48,14.53-25.73,25.27c-6.26,10.75-9.38,22.76-9.38,36.02
		c0,13.27,3.12,25.27,9.38,36.03c6.25,10.75,14.83,19.17,25.73,25.27c10.9,6.1,23.06,9.14,36.48,9.14
		C-439.67,783.88-427.55,780.84-416.72,774.74z"/>
	<path class="st0" d="M-199,633.4v160.09h-9.61l-109.09-139.05v139.05h-11.66V633.4h9.83l108.86,139.05V633.4H-199z"/>
	<g>
		<path class="st0" d="M-1486.03,461.69c0-96.6-78.59-175.19-175.19-175.19s-175.19,78.59-175.19,175.19c0,2.22,0.09,4.41,0.17,6.61
			l-0.1-0.01c-0.23,1.61-22.98,158.07-55.49,221c-0.38,0.67-0.72,1.36-1.08,2.04c-0.35,0.65-0.69,1.35-1.05,1.98l0.07,0.04
			c-4.41,9.23-6.96,19.52-6.96,30.41c0,39.07,31.79,70.86,70.86,70.86c32.69,0,60.21-22.29,68.34-52.45
			c23.01-54.96,126.09-101.64,160.34-115.86c3.31-1.21,6.57-2.54,9.78-3.94c0.72-0.28,1.23-0.47,1.31-0.5l-0.03-0.08
			C-1528.91,594.5-1486.03,533.03-1486.03,461.69z M-1661.22,299.36c10.9,0,21.56,1.1,31.86,3.16
			c56.01,21.16,95.86,75.24,95.86,138.66c0,81.87-66.37,148.24-148.24,148.24c-63.42,0-117.49-39.84-138.65-95.85
			c-2.06-10.31-3.16-20.96-3.16-31.87C-1823.55,372.18-1750.73,299.36-1661.22,299.36z M-1829.98,665.77
			c8.91,0,17.33,2.08,24.88,5.69c12.58,10.07,20.68,25.51,20.68,42.88c0,30.37-24.62,54.99-54.99,54.99
			c-17.38,0-32.82-8.1-42.88-20.68c-3.61-7.55-5.68-15.97-5.68-24.88c0-9.46,2.32-18.37,6.35-26.26c0.38-0.71,0.76-1.43,1.14-2.16
			C-1870.52,677.72-1851.63,665.77-1829.98,665.77z M-1759.82,714.38c-4.62-34.64-34.28-61.46-70.16-61.46
			c-13.6,0-26.27,3.92-37.07,10.59c16.99-47.89,29.98-113.38,37.16-154.59c20.67,73.73,88.43,127.97,168.67,127.97
			c2.21,0,4.4-0.09,6.58-0.17C-1691.07,655.35-1735.1,682.47-1759.82,714.38z"/>
		<path class="st0" d="M-1718.7,341.39c-30.97,0-56.16,25.19-56.16,56.16c0,30.97,25.19,56.16,56.16,56.16
			c30.96,0,56.16-25.19,56.16-56.16C-1662.54,366.58-1687.74,341.39-1718.7,341.39z M-1718.7,345.67c3.65,0,7.21,0.39,10.65,1.11
			c17.8,6.86,30.45,24.08,30.45,44.31c0,26.27-21.29,47.56-47.56,47.56c-20.23,0-37.45-12.65-44.31-30.46
			c-0.72-3.44-1.11-7-1.11-10.65C-1770.58,368.94-1747.31,345.67-1718.7,345.67z"/>
		<path class="st0" d="M-1686.11,487.85c-19.15,0-34.74,15.58-34.74,34.74c0,19.16,15.58,34.74,34.74,34.74
			c19.16,0,34.74-15.58,34.74-34.74C-1651.37,503.43-1666.95,487.85-1686.11,487.85z M-1686.11,492.13c1.68,0,3.33,0.17,4.94,0.44
			c8.93,4.21,15.15,13.23,15.15,23.76c0,14.55-11.79,26.34-26.34,26.34c-10.53,0-19.55-6.22-23.76-15.15
			c-0.26-1.61-0.44-3.25-0.44-4.93C-1716.56,505.79-1702.9,492.13-1686.11,492.13z"/>
		<path class="st0" d="M-1602.18,409.84c-15.89,0-28.81,12.92-28.81,28.81c0,15.89,12.92,28.81,28.81,28.81
			c15.89,0,28.81-12.92,28.81-28.81C-1573.37,422.77-1586.29,409.84-1602.18,409.84z M-1602.18,414.13c1.87,0,3.69,0.23,5.45,0.63
			c6.79,3.66,11.44,10.74,11.44,19c0,12.03-9.75,21.78-21.78,21.78c-8.26,0-15.34-4.65-19-11.44c-0.4-1.76-0.63-3.57-0.63-5.45
			C-1626.7,425.13-1615.7,414.13-1602.18,414.13z"/>
	</g>
</g>
<g>
	<path d="M926.1,529.67l-0.35-208.09L823.96,497.37h-8.68L713.49,322.28v207.39h-17.37V286.5h14.93l108.73,187.94L928.53,286.5
		h14.59l0.34,243.17H926.1z"/>
	<path d="M1066.79,515.26c-19.23-10.77-34.34-25.54-45.34-44.29c-11-18.77-16.5-39.71-16.5-62.88c0-23.15,5.5-44.12,16.5-62.87
		c11-18.77,26.11-33.52,45.34-44.3c19.22-10.77,40.76-16.16,64.61-16.16c23.85,0,45.38,5.33,64.61,15.98
		c19.22,10.65,34.33,25.36,45.33,44.12c11,18.77,16.5,39.85,16.5,63.23c0,23.39-5.51,44.47-16.5,63.23
		c-11,18.77-26.12,33.46-45.33,44.12c-19.23,10.67-40.77,15.98-64.61,15.98C1107.55,531.4,1086,526.03,1066.79,515.26z
		 M1186.63,501.19c16.44-9.26,29.41-22.07,38.91-38.39c9.5-16.34,14.25-34.57,14.25-54.72c0-20.14-4.75-38.39-14.25-54.71
		c-9.5-16.32-22.47-29.12-38.91-38.39s-34.86-13.89-55.23-13.89c-20.39,0-38.86,4.62-55.41,13.89
		c-16.56,9.26-29.59,22.07-39.08,38.39c-9.5,16.32-14.25,34.57-14.25,54.71c0,20.16,4.74,38.39,14.25,54.72
		c9.49,16.32,22.52,29.12,39.08,38.39c16.55,9.26,35.02,13.89,55.41,13.89C1151.77,515.08,1170.19,510.46,1186.63,501.19z"/>
	<path d="M1357.9,515.26c-19.23-10.77-34.34-25.54-45.34-44.29c-11-18.77-16.5-39.71-16.5-62.88c0-23.15,5.5-44.12,16.5-62.87
		c11-18.77,26.11-33.52,45.34-44.3c19.22-10.77,40.76-16.16,64.61-16.16c23.85,0,45.38,5.33,64.61,15.98
		c19.22,10.65,34.33,25.36,45.33,44.12c11,18.77,16.5,39.85,16.5,63.23c0,23.39-5.51,44.47-16.5,63.23
		c-11,18.77-26.12,33.46-45.33,44.12c-19.23,10.67-40.77,15.98-64.61,15.98C1398.66,531.4,1377.12,526.03,1357.9,515.26z
		 M1477.75,501.19c16.44-9.26,29.41-22.07,38.91-38.39c9.5-16.34,14.25-34.57,14.25-54.72c0-20.14-4.75-38.39-14.25-54.71
		c-9.5-16.32-22.47-29.12-38.91-38.39s-34.86-13.89-55.23-13.89c-20.39,0-38.86,4.62-55.41,13.89
		c-16.56,9.26-29.59,22.07-39.08,38.39c-9.5,16.32-14.25,34.57-14.25,54.71c0,20.16,4.74,38.39,14.25,54.72
		c9.49,16.32,22.52,29.12,39.08,38.39c16.55,9.26,35.02,13.89,55.41,13.89C1442.89,515.08,1461.31,510.46,1477.75,501.19z"/>
	<path d="M1808.46,286.5v243.17h-14.59l-165.7-211.21v211.21h-17.72V286.5h14.93l165.36,211.21V286.5H1808.46z"/>
	<path d="M821.08,724.42c6.02,6.87,9.03,15.78,9.03,26.75c0,13.57-4.96,24.01-14.87,31.33c-9.91,7.32-24.62,10.98-44.14,10.98
		h-71.35V633.4h66.78c17.38,0,30.91,3.54,40.59,10.63c9.68,7.09,14.52,17.2,14.52,30.31c0,9.14-2.4,16.84-7.2,23.09
		c-4.8,6.26-11.32,10.75-19.55,13.5C806.32,713.07,815.05,717.55,821.08,724.42z M711.42,643.46v63.81h54.66
		c14.03,0,24.82-2.71,32.36-8.12c7.55-5.41,11.32-13.38,11.32-23.9c0-10.37-3.78-18.26-11.32-23.67
		c-7.54-5.41-18.33-8.12-32.36-8.12H711.42z M806.44,775.31c8-5.41,12.01-13.76,12.01-25.05c0-11.28-4-19.58-12.01-24.93
		c-8-5.33-19.78-8-35.33-8h-59.69v66.09h59.69C786.66,783.42,798.43,780.72,806.44,775.31z"/>
	<path d="M970.76,748.43h-92.85l-20.36,45.05h-12.58l73.64-160.09h11.66l73.64,160.09h-12.58L970.76,748.43z M966.41,738.6
		l-42.08-92.39l-41.86,92.39H966.41z"/>
	<path d="M1032.96,633.4h11.66v149.57h92.16v10.52h-103.83V633.4z"/>
	<path d="M1166.75,633.4h11.66v149.57h92.16v10.52h-103.83V633.4z"/>
	<path d="M1322.73,784c-12.66-7.09-22.6-16.82-29.85-29.16c-7.24-12.36-10.86-26.15-10.86-41.4c0-15.24,3.62-29.04,10.86-41.39
		c7.24-12.36,17.19-22.07,29.85-29.16c12.65-7.09,26.83-10.64,42.54-10.64c15.7,0,29.88,3.51,42.54,10.52
		c12.65,7.01,22.6,16.7,29.84,29.04c7.24,12.36,10.86,26.23,10.86,41.63c0,15.4-3.62,29.28-10.86,41.63
		c-7.24,12.36-17.19,22.03-29.84,29.04c-12.66,7.02-26.84,10.52-42.54,10.52C1349.56,794.63,1335.38,791.09,1322.73,784z
		 M1401.63,774.74c10.82-6.1,19.36-14.53,25.62-25.27c6.25-10.75,9.38-22.76,9.38-36.03c0-13.26-3.13-25.27-9.38-36.02
		c-6.25-10.75-14.79-19.17-25.62-25.27c-10.82-6.1-22.95-9.14-36.36-9.14c-13.42,0-25.58,3.04-36.48,9.14
		c-10.9,6.1-19.48,14.53-25.73,25.27c-6.26,10.75-9.38,22.76-9.38,36.02c0,13.27,3.12,25.27,9.38,36.03
		c6.25,10.75,14.83,19.17,25.73,25.27c10.9,6.1,23.06,9.14,36.48,9.14C1378.68,783.88,1390.81,780.84,1401.63,774.74z"/>
	<path d="M1514.38,784c-12.66-7.09-22.61-16.82-29.85-29.16c-7.24-12.36-10.86-26.15-10.86-41.4c0-15.24,3.62-29.04,10.86-41.39
		c7.24-12.36,17.19-22.07,29.85-29.16c12.65-7.09,26.83-10.64,42.54-10.64c15.7,0,29.88,3.51,42.54,10.52
		c12.65,7.01,22.6,16.7,29.84,29.04c7.24,12.36,10.86,26.23,10.86,41.63c0,15.4-3.62,29.28-10.86,41.63
		c-7.24,12.36-17.19,22.03-29.84,29.04c-12.66,7.02-26.84,10.52-42.54,10.52C1541.21,794.63,1527.03,791.09,1514.38,784z
		 M1593.28,774.74c10.82-6.1,19.36-14.53,25.62-25.27c6.25-10.75,9.38-22.76,9.38-36.03c0-13.26-3.13-25.27-9.38-36.02
		c-6.25-10.75-14.79-19.17-25.62-25.27c-10.82-6.1-22.95-9.14-36.36-9.14c-13.42,0-25.58,3.04-36.48,9.14
		c-10.9,6.1-19.48,14.53-25.73,25.27c-6.26,10.75-9.38,22.76-9.38,36.02c0,13.27,3.12,25.27,9.38,36.03
		c6.25,10.75,14.83,19.17,25.73,25.27c10.9,6.1,23.06,9.14,36.48,9.14C1570.33,783.88,1582.45,780.84,1593.28,774.74z"/>
	<path d="M1811,633.4v160.09h-9.61l-109.09-139.05v139.05h-11.66V633.4h9.83l108.86,139.05V633.4H1811z"/>
	<g>
		<path d="M523.97,461.69c0-96.6-78.59-175.19-175.19-175.19S173.59,365.1,173.59,461.69c0,2.22,0.09,4.41,0.17,6.61l-0.1-0.01
			c-0.23,1.61-22.98,158.07-55.49,221c-0.38,0.67-0.72,1.36-1.08,2.04c-0.35,0.65-0.69,1.35-1.05,1.98l0.07,0.04
			c-4.41,9.23-6.96,19.52-6.96,30.41c0,39.07,31.79,70.86,70.86,70.86c32.69,0,60.21-22.29,68.34-52.45
			c23.01-54.96,126.09-101.64,160.34-115.86c3.31-1.21,6.57-2.54,9.78-3.94c0.72-0.28,1.23-0.47,1.31-0.5l-0.03-0.08
			C481.09,594.5,523.97,533.03,523.97,461.69z M348.78,299.36c10.9,0,21.56,1.1,31.86,3.16c56.01,21.16,95.86,75.24,95.86,138.66
			c0,81.87-66.37,148.24-148.24,148.24c-63.42,0-117.49-39.84-138.65-95.85c-2.06-10.31-3.16-20.96-3.16-31.87
			C186.45,372.18,259.27,299.36,348.78,299.36z M180.02,665.77c8.91,0,17.33,2.08,24.88,5.69c12.58,10.07,20.68,25.51,20.68,42.88
			c0,30.37-24.62,54.99-54.99,54.99c-17.38,0-32.82-8.1-42.88-20.68c-3.61-7.55-5.68-15.97-5.68-24.88c0-9.46,2.32-18.37,6.35-26.26
			c0.38-0.71,0.76-1.43,1.14-2.16C139.48,677.72,158.37,665.77,180.02,665.77z M250.18,714.38c-4.62-34.64-34.28-61.46-70.16-61.46
			c-13.6,0-26.27,3.92-37.07,10.59c16.99-47.89,29.98-113.38,37.16-154.59c20.67,73.73,88.43,127.97,168.67,127.97
			c2.21,0,4.4-0.09,6.58-0.17C318.93,655.35,274.9,682.47,250.18,714.38z"/>
		<path d="M291.3,341.39c-30.97,0-56.16,25.19-56.16,56.16c0,30.97,25.19,56.16,56.16,56.16c30.96,0,56.16-25.19,56.16-56.16
			C347.46,366.58,322.26,341.39,291.3,341.39z M291.3,345.67c3.65,0,7.21,0.39,10.65,1.11c17.8,6.86,30.45,24.08,30.45,44.31
			c0,26.27-21.29,47.56-47.56,47.56c-20.23,0-37.45-12.65-44.31-30.46c-0.72-3.44-1.11-7-1.11-10.65
			C239.42,368.94,262.69,345.67,291.3,345.67z"/>
		<path d="M323.89,487.85c-19.15,0-34.74,15.58-34.74,34.74c0,19.16,15.58,34.74,34.74,34.74c19.16,0,34.74-15.58,34.74-34.74
			C358.63,503.43,343.05,487.85,323.89,487.85z M323.89,492.13c1.68,0,3.33,0.17,4.94,0.44c8.93,4.21,15.15,13.23,15.15,23.76
			c0,14.55-11.79,26.34-26.34,26.34c-10.53,0-19.55-6.22-23.76-15.15c-0.26-1.61-0.44-3.25-0.44-4.93
			C293.44,505.79,307.1,492.13,323.89,492.13z"/>
		<path d="M407.82,409.84c-15.89,0-28.81,12.92-28.81,28.81c0,15.89,12.92,28.81,28.81,28.81c15.89,0,28.81-12.92,28.81-28.81
			C436.63,422.77,423.71,409.84,407.82,409.84z M407.82,414.13c1.87,0,3.69,0.23,5.45,0.63c6.79,3.66,11.44,10.74,11.44,19
			c0,12.03-9.75,21.78-21.78,21.78c-8.26,0-15.34-4.65-19-11.44c-0.4-1.76-0.63-3.57-0.63-5.45
			C383.3,425.13,394.3,414.13,407.82,414.13z"/>
	</g>
</g>
<g>
	<path class="st1" d="M926.1-905.33l-0.35-208.09L823.96-937.63h-8.68l-101.79-175.09v207.39h-17.37v-243.17h14.93l108.73,187.94
		l108.74-187.94h14.59l0.34,243.17H926.1z"/>
	<path class="st1" d="M1066.79-919.74c-19.23-10.77-34.34-25.54-45.34-44.29c-11-18.77-16.5-39.71-16.5-62.88
		c0-23.15,5.5-44.12,16.5-62.87c11-18.77,26.11-33.52,45.34-44.3c19.22-10.77,40.76-16.16,64.61-16.16
		c23.85,0,45.38,5.33,64.61,15.98c19.22,10.65,34.33,25.36,45.33,44.12c11,18.77,16.5,39.85,16.5,63.23
		c0,23.39-5.51,44.47-16.5,63.23c-11,18.77-26.12,33.46-45.33,44.12c-19.23,10.67-40.77,15.98-64.61,15.98
		C1107.55-903.6,1086-908.97,1066.79-919.74z M1186.63-933.81c16.44-9.26,29.41-22.07,38.91-38.39
		c9.5-16.34,14.25-34.57,14.25-54.72c0-20.14-4.75-38.39-14.25-54.71c-9.5-16.32-22.47-29.12-38.91-38.39
		c-16.44-9.26-34.86-13.89-55.23-13.89c-20.39,0-38.86,4.62-55.41,13.89c-16.56,9.26-29.59,22.07-39.08,38.39
		c-9.5,16.32-14.25,34.57-14.25,54.71c0,20.16,4.74,38.39,14.25,54.72c9.49,16.32,22.52,29.12,39.08,38.39
		c16.55,9.26,35.02,13.89,55.41,13.89C1151.77-919.92,1170.19-924.54,1186.63-933.81z"/>
	<path class="st1" d="M1357.9-919.74c-19.23-10.77-34.34-25.54-45.34-44.29c-11-18.77-16.5-39.71-16.5-62.88
		c0-23.15,5.5-44.12,16.5-62.87c11-18.77,26.11-33.52,45.34-44.3c19.22-10.77,40.76-16.16,64.61-16.16
		c23.85,0,45.38,5.33,64.61,15.98c19.22,10.65,34.33,25.36,45.33,44.12c11,18.77,16.5,39.85,16.5,63.23
		c0,23.39-5.51,44.47-16.5,63.23c-11,18.77-26.12,33.46-45.33,44.12c-19.23,10.67-40.77,15.98-64.61,15.98
		C1398.66-903.6,1377.12-908.97,1357.9-919.74z M1477.75-933.81c16.44-9.26,29.41-22.07,38.91-38.39
		c9.5-16.34,14.25-34.57,14.25-54.72c0-20.14-4.75-38.39-14.25-54.71s-22.47-29.12-38.91-38.39c-16.44-9.26-34.86-13.89-55.23-13.89
		c-20.39,0-38.86,4.62-55.41,13.89c-16.56,9.26-29.59,22.07-39.08,38.39c-9.5,16.32-14.25,34.57-14.25,54.71
		c0,20.16,4.74,38.39,14.25,54.72c9.49,16.32,22.52,29.12,39.08,38.39c16.55,9.26,35.02,13.89,55.41,13.89
		C1442.89-919.92,1461.31-924.54,1477.75-933.81z"/>
	<path class="st1" d="M1808.46-1148.5v243.17h-14.59l-165.7-211.21v211.21h-17.72v-243.17h14.93l165.36,211.21v-211.21H1808.46z"/>
	<path class="st1" d="M821.08-710.58c6.02,6.87,9.03,15.78,9.03,26.75c0,13.57-4.96,24.01-14.87,31.33
		c-9.91,7.32-24.62,10.98-44.14,10.98h-71.35V-801.6h66.78c17.38,0,30.91,3.54,40.59,10.63c9.68,7.09,14.52,17.2,14.52,30.31
		c0,9.14-2.4,16.84-7.2,23.09c-4.8,6.26-11.32,10.75-19.55,13.5C806.32-721.93,815.05-717.45,821.08-710.58z M711.42-791.54v63.81
		h54.66c14.03,0,24.82-2.71,32.36-8.12c7.55-5.41,11.32-13.38,11.32-23.9c0-10.37-3.78-18.26-11.32-23.67
		c-7.54-5.41-18.33-8.12-32.36-8.12H711.42z M806.44-659.69c8-5.41,12.01-13.76,12.01-25.05c0-11.28-4-19.58-12.01-24.93
		c-8-5.33-19.78-8-35.33-8h-59.69v66.09h59.69C786.66-651.58,798.43-654.28,806.44-659.69z"/>
	<path class="st1" d="M970.76-686.57h-92.85l-20.36,45.05h-12.58l73.64-160.09h11.66l73.64,160.09h-12.58L970.76-686.57z
		 M966.41-696.4l-42.08-92.39l-41.86,92.39H966.41z"/>
	<path class="st1" d="M1032.96-801.6h11.66v149.57h92.16v10.52h-103.83V-801.6z"/>
	<path class="st1" d="M1166.75-801.6h11.66v149.57h92.16v10.52h-103.83V-801.6z"/>
	<path class="st1" d="M1322.73-651c-12.66-7.09-22.6-16.82-29.85-29.16c-7.24-12.36-10.86-26.15-10.86-41.4
		c0-15.24,3.62-29.04,10.86-41.39c7.24-12.36,17.19-22.07,29.85-29.16c12.65-7.09,26.83-10.64,42.54-10.64
		c15.7,0,29.88,3.51,42.54,10.52c12.65,7.01,22.6,16.7,29.84,29.04c7.24,12.36,10.86,26.23,10.86,41.63
		c0,15.4-3.62,29.28-10.86,41.63c-7.24,12.36-17.19,22.03-29.84,29.04c-12.66,7.02-26.84,10.52-42.54,10.52
		C1349.56-640.37,1335.38-643.91,1322.73-651z M1401.63-660.26c10.82-6.1,19.36-14.53,25.62-25.27c6.25-10.75,9.38-22.76,9.38-36.03
		c0-13.26-3.13-25.27-9.38-36.02c-6.25-10.75-14.79-19.17-25.62-25.27c-10.82-6.1-22.95-9.14-36.36-9.14
		c-13.42,0-25.58,3.04-36.48,9.14c-10.9,6.1-19.48,14.53-25.73,25.27c-6.26,10.75-9.38,22.76-9.38,36.02
		c0,13.27,3.12,25.27,9.38,36.03c6.25,10.75,14.83,19.17,25.73,25.27c10.9,6.1,23.06,9.14,36.48,9.14
		C1378.68-651.12,1390.81-654.16,1401.63-660.26z"/>
	<path class="st1" d="M1514.38-651c-12.66-7.09-22.61-16.82-29.85-29.16c-7.24-12.36-10.86-26.15-10.86-41.4
		c0-15.24,3.62-29.04,10.86-41.39c7.24-12.36,17.19-22.07,29.85-29.16c12.65-7.09,26.83-10.64,42.54-10.64
		c15.7,0,29.88,3.51,42.54,10.52c12.65,7.01,22.6,16.7,29.84,29.04c7.24,12.36,10.86,26.23,10.86,41.63
		c0,15.4-3.62,29.28-10.86,41.63c-7.24,12.36-17.19,22.03-29.84,29.04c-12.66,7.02-26.84,10.52-42.54,10.52
		C1541.21-640.37,1527.03-643.91,1514.38-651z M1593.28-660.26c10.82-6.1,19.36-14.53,25.62-25.27c6.25-10.75,9.38-22.76,9.38-36.03
		c0-13.26-3.13-25.27-9.38-36.02c-6.25-10.75-14.79-19.17-25.62-25.27c-10.82-6.1-22.95-9.14-36.36-9.14
		c-13.42,0-25.58,3.04-36.48,9.14c-10.9,6.1-19.48,14.53-25.73,25.27c-6.26,10.75-9.38,22.76-9.38,36.02
		c0,13.27,3.12,25.27,9.38,36.03c6.25,10.75,14.83,19.17,25.73,25.27c10.9,6.1,23.06,9.14,36.48,9.14
		C1570.33-651.12,1582.45-654.16,1593.28-660.26z"/>
	<path class="st1" d="M1811-801.6v160.09h-9.61l-109.09-139.05v139.05h-11.66V-801.6h9.83l108.86,139.05V-801.6H1811z"/>
	<g>
		<path class="st1" d="M523.97-973.31c0-96.6-78.59-175.19-175.19-175.19s-175.19,78.59-175.19,175.19c0,2.22,0.09,4.41,0.17,6.61
			l-0.1-0.01c-0.23,1.61-22.98,158.07-55.49,221c-0.38,0.67-0.72,1.36-1.08,2.04c-0.35,0.65-0.69,1.35-1.05,1.98l0.07,0.04
			c-4.41,9.23-6.96,19.52-6.96,30.41c0,39.07,31.79,70.86,70.86,70.86c32.69,0,60.21-22.29,68.34-52.45
			c23.01-54.96,126.09-101.64,160.34-115.86c3.31-1.21,6.57-2.54,9.78-3.94c0.72-0.28,1.23-0.47,1.31-0.5l-0.03-0.08
			C481.09-840.5,523.97-901.97,523.97-973.31z M348.78-1135.64c10.9,0,21.56,1.1,31.86,3.16c56.01,21.16,95.86,75.23,95.86,138.66
			c0,81.87-66.37,148.24-148.24,148.24c-63.42,0-117.49-39.84-138.65-95.85c-2.06-10.31-3.16-20.96-3.16-31.87
			C186.45-1062.82,259.27-1135.64,348.78-1135.64z M180.02-769.23c8.91,0,17.33,2.08,24.88,5.69
			c12.58,10.07,20.68,25.51,20.68,42.88c0,30.37-24.62,54.99-54.99,54.99c-17.38,0-32.82-8.1-42.88-20.68
			c-3.61-7.55-5.68-15.97-5.68-24.88c0-9.46,2.32-18.37,6.35-26.26c0.38-0.71,0.76-1.43,1.14-2.16
			C139.48-757.28,158.37-769.23,180.02-769.23z M250.18-720.62c-4.62-34.64-34.28-61.46-70.16-61.46c-13.6,0-26.27,3.92-37.07,10.59
			c16.99-47.89,29.98-113.38,37.16-154.59c20.67,73.73,88.43,127.97,168.67,127.97c2.21,0,4.4-0.09,6.58-0.17
			C318.93-779.65,274.9-752.53,250.18-720.62z"/>
		<path class="st1" d="M291.3-1093.61c-30.97,0-56.16,25.19-56.16,56.16c0,30.97,25.19,56.16,56.16,56.16
			c30.96,0,56.16-25.19,56.16-56.16C347.46-1068.42,322.26-1093.61,291.3-1093.61z M291.3-1089.33c3.65,0,7.21,0.39,10.65,1.11
			c17.8,6.86,30.45,24.08,30.45,44.31c0,26.27-21.29,47.56-47.56,47.56c-20.23,0-37.45-12.65-44.31-30.46
			c-0.72-3.44-1.11-7-1.11-10.65C239.42-1066.06,262.69-1089.33,291.3-1089.33z"/>
		<path class="st1" d="M323.89-947.15c-19.15,0-34.74,15.58-34.74,34.74c0,19.16,15.58,34.74,34.74,34.74
			c19.16,0,34.74-15.58,34.74-34.74C358.63-931.57,343.05-947.15,323.89-947.15z M323.89-942.87c1.68,0,3.33,0.17,4.94,0.44
			c8.93,4.21,15.15,13.23,15.15,23.76c0,14.55-11.79,26.34-26.34,26.34c-10.53,0-19.55-6.22-23.76-15.15
			c-0.26-1.61-0.44-3.25-0.44-4.93C293.44-929.21,307.1-942.87,323.89-942.87z"/>
		<path class="st1" d="M407.82-1025.16c-15.89,0-28.81,12.92-28.81,28.81s12.92,28.81,28.81,28.81c15.89,0,28.81-12.92,28.81-28.81
			S423.71-1025.16,407.82-1025.16z M407.82-1020.87c1.87,0,3.69,0.23,5.45,0.63c6.79,3.66,11.44,10.74,11.44,19
			c0,12.03-9.75,21.78-21.78,21.78c-8.26,0-15.34-4.65-19-11.44c-0.4-1.76-0.63-3.57-0.63-5.45
			C383.3-1009.87,394.3-1020.87,407.82-1020.87z"/>
	</g>
</g>
<g>
	<path class="st2" d="M-1083.9-905.33l-0.35-208.09l-101.79,175.79h-8.68l-101.79-175.09v207.39h-17.37v-243.17h14.93l108.73,187.94
		l108.74-187.94h14.59l0.34,243.17H-1083.9z"/>
	<path class="st2" d="M-943.21-919.74c-19.23-10.77-34.34-25.54-45.34-44.29c-11-18.77-16.5-39.71-16.5-62.88
		c0-23.15,5.5-44.12,16.5-62.87c11-18.77,26.11-33.52,45.34-44.3c19.22-10.77,40.76-16.16,64.61-16.16
		c23.85,0,45.38,5.33,64.61,15.98c19.22,10.65,34.33,25.36,45.33,44.12c11,18.77,16.5,39.85,16.5,63.23
		c0,23.39-5.51,44.47-16.5,63.23c-11,18.77-26.12,33.46-45.33,44.12c-19.23,10.67-40.77,15.98-64.61,15.98
		C-902.45-903.6-924-908.97-943.21-919.74z M-823.37-933.81c16.44-9.26,29.41-22.07,38.91-38.39c9.5-16.34,14.25-34.57,14.25-54.72
		c0-20.14-4.75-38.39-14.25-54.71c-9.5-16.32-22.47-29.12-38.91-38.39c-16.44-9.26-34.86-13.89-55.23-13.89
		c-20.39,0-38.86,4.62-55.41,13.89c-16.56,9.26-29.59,22.07-39.08,38.39c-9.5,16.32-14.25,34.57-14.25,54.71
		c0,20.16,4.74,38.39,14.25,54.72c9.49,16.32,22.52,29.12,39.08,38.39c16.55,9.26,35.02,13.89,55.41,13.89
		C-858.23-919.92-839.81-924.54-823.37-933.81z"/>
	<path class="st2" d="M-652.1-919.74c-19.23-10.77-34.34-25.54-45.34-44.29c-11-18.77-16.5-39.71-16.5-62.88
		c0-23.15,5.5-44.12,16.5-62.87c11-18.77,26.11-33.52,45.34-44.3c19.22-10.77,40.76-16.16,64.61-16.16
		c23.85,0,45.38,5.33,64.61,15.98c19.22,10.65,34.33,25.36,45.33,44.12c11,18.77,16.5,39.85,16.5,63.23
		c0,23.39-5.51,44.47-16.5,63.23c-11,18.77-26.12,33.46-45.33,44.12c-19.23,10.67-40.77,15.98-64.61,15.98
		C-611.34-903.6-632.88-908.97-652.1-919.74z M-532.25-933.81c16.44-9.26,29.41-22.07,38.91-38.39
		c9.5-16.34,14.25-34.57,14.25-54.72c0-20.14-4.75-38.39-14.25-54.71c-9.5-16.32-22.47-29.12-38.91-38.39
		c-16.44-9.26-34.86-13.89-55.23-13.89c-20.39,0-38.86,4.62-55.41,13.89c-16.56,9.26-29.59,22.07-39.08,38.39
		c-9.5,16.32-14.25,34.57-14.25,54.71c0,20.16,4.74,38.39,14.25,54.72c9.49,16.32,22.52,29.12,39.08,38.39
		c16.55,9.26,35.02,13.89,55.41,13.89C-567.11-919.92-548.69-924.54-532.25-933.81z"/>
	<path class="st2" d="M-201.54-1148.5v243.17h-14.59l-165.7-211.21v211.21h-17.72v-243.17h14.93l165.36,211.21v-211.21H-201.54z"/>
	<path class="st2" d="M-1188.92-710.58c6.02,6.87,9.03,15.78,9.03,26.75c0,13.57-4.96,24.01-14.87,31.33
		c-9.91,7.32-24.62,10.98-44.14,10.98h-71.35V-801.6h66.78c17.38,0,30.91,3.54,40.59,10.63c9.68,7.09,14.52,17.2,14.52,30.31
		c0,9.14-2.4,16.84-7.2,23.09c-4.8,6.26-11.32,10.75-19.55,13.5C-1203.68-721.93-1194.95-717.45-1188.92-710.58z M-1298.58-791.54
		v63.81h54.66c14.03,0,24.81-2.71,32.36-8.12c7.55-5.41,11.32-13.38,11.32-23.9c0-10.37-3.78-18.26-11.32-23.67
		c-7.54-5.41-18.33-8.12-32.36-8.12H-1298.58z M-1203.56-659.69c8-5.41,12.01-13.76,12.01-25.05c0-11.28-4-19.58-12.01-24.93
		c-8-5.33-19.78-8-35.33-8h-59.69v66.09h59.69C-1223.34-651.58-1211.57-654.28-1203.56-659.69z"/>
	<path class="st2" d="M-1039.24-686.57h-92.85l-20.36,45.05h-12.58l73.64-160.09h11.66l73.64,160.09h-12.58L-1039.24-686.57z
		 M-1043.59-696.4l-42.08-92.39l-41.86,92.39H-1043.59z"/>
	<path class="st2" d="M-977.04-801.6h11.66v149.57h92.16v10.52h-103.83V-801.6z"/>
	<path class="st2" d="M-843.25-801.6h11.66v149.57h92.16v10.52h-103.83V-801.6z"/>
	<path class="st2" d="M-687.27-651c-12.66-7.09-22.61-16.82-29.85-29.16c-7.24-12.36-10.86-26.15-10.86-41.4
		c0-15.24,3.62-29.04,10.86-41.39c7.24-12.36,17.19-22.07,29.85-29.16c12.65-7.09,26.83-10.64,42.54-10.64
		c15.7,0,29.88,3.51,42.54,10.52c12.65,7.01,22.6,16.7,29.84,29.04c7.24,12.36,10.86,26.23,10.86,41.63
		c0,15.4-3.62,29.28-10.86,41.63c-7.24,12.36-17.19,22.03-29.84,29.04c-12.66,7.02-26.84,10.52-42.54,10.52
		C-660.44-640.37-674.62-643.91-687.27-651z M-608.37-660.26c10.82-6.1,19.36-14.53,25.62-25.27c6.25-10.75,9.38-22.76,9.38-36.03
		c0-13.26-3.13-25.27-9.38-36.02c-6.25-10.75-14.79-19.17-25.62-25.27c-10.82-6.1-22.95-9.14-36.36-9.14
		c-13.42,0-25.58,3.04-36.48,9.14c-10.9,6.1-19.48,14.53-25.73,25.27c-6.26,10.75-9.38,22.76-9.38,36.02
		c0,13.27,3.12,25.27,9.38,36.03c6.25,10.75,14.83,19.17,25.73,25.27c10.9,6.1,23.06,9.14,36.48,9.14
		C-631.32-651.12-619.19-654.16-608.37-660.26z"/>
	<path class="st2" d="M-495.62-651c-12.66-7.09-22.61-16.82-29.85-29.16c-7.24-12.36-10.86-26.15-10.86-41.4
		c0-15.24,3.62-29.04,10.86-41.39c7.24-12.36,17.19-22.07,29.85-29.16c12.65-7.09,26.83-10.64,42.54-10.64
		c15.7,0,29.88,3.51,42.54,10.52c12.65,7.01,22.6,16.7,29.84,29.04c7.24,12.36,10.86,26.23,10.86,41.63
		c0,15.4-3.62,29.28-10.86,41.63c-7.24,12.36-17.19,22.03-29.84,29.04c-12.66,7.02-26.84,10.52-42.54,10.52
		C-468.79-640.37-482.97-643.91-495.62-651z M-416.72-660.26c10.82-6.1,19.36-14.53,25.62-25.27c6.25-10.75,9.38-22.76,9.38-36.03
		c0-13.26-3.13-25.27-9.38-36.02c-6.25-10.75-14.79-19.17-25.62-25.27c-10.82-6.1-22.95-9.14-36.36-9.14
		c-13.42,0-25.58,3.04-36.48,9.14c-10.9,6.1-19.48,14.53-25.73,25.27c-6.26,10.75-9.38,22.76-9.38,36.02
		c0,13.27,3.12,25.27,9.38,36.03c6.25,10.75,14.83,19.17,25.73,25.27c10.9,6.1,23.06,9.14,36.48,9.14
		C-439.67-651.12-427.55-654.16-416.72-660.26z"/>
	<path class="st2" d="M-199-801.6v160.09h-9.61l-109.09-139.05v139.05h-11.66V-801.6h9.83l108.86,139.05V-801.6H-199z"/>
	<g>
		<path class="st2" d="M-1486.03-973.31c0-96.6-78.59-175.19-175.19-175.19s-175.19,78.59-175.19,175.19c0,2.22,0.09,4.41,0.17,6.61
			l-0.1-0.01c-0.23,1.61-22.98,158.07-55.49,221c-0.38,0.67-0.72,1.36-1.08,2.04c-0.35,0.65-0.69,1.35-1.05,1.98l0.07,0.04
			c-4.41,9.23-6.96,19.52-6.96,30.41c0,39.07,31.79,70.86,70.86,70.86c32.69,0,60.21-22.29,68.34-52.45
			c23.01-54.96,126.09-101.64,160.34-115.86c3.31-1.21,6.57-2.54,9.78-3.94c0.72-0.28,1.23-0.47,1.31-0.5l-0.03-0.08
			C-1528.91-840.5-1486.03-901.97-1486.03-973.31z M-1661.22-1135.64c10.9,0,21.56,1.1,31.86,3.16
			c56.01,21.16,95.86,75.23,95.86,138.66c0,81.87-66.37,148.24-148.24,148.24c-63.42,0-117.49-39.84-138.65-95.85
			c-2.06-10.31-3.16-20.96-3.16-31.87C-1823.55-1062.82-1750.73-1135.64-1661.22-1135.64z M-1829.98-769.23
			c8.91,0,17.33,2.08,24.88,5.69c12.58,10.07,20.68,25.51,20.68,42.88c0,30.37-24.62,54.99-54.99,54.99
			c-17.38,0-32.82-8.1-42.88-20.68c-3.61-7.55-5.68-15.97-5.68-24.88c0-9.46,2.32-18.37,6.35-26.26c0.38-0.71,0.76-1.43,1.14-2.16
			C-1870.52-757.28-1851.63-769.23-1829.98-769.23z M-1759.82-720.62c-4.62-34.64-34.28-61.46-70.16-61.46
			c-13.6,0-26.27,3.92-37.07,10.59c16.99-47.89,29.98-113.38,37.16-154.59c20.67,73.73,88.43,127.97,168.67,127.97
			c2.21,0,4.4-0.09,6.58-0.17C-1691.07-779.65-1735.1-752.53-1759.82-720.62z"/>
		<path class="st2" d="M-1718.7-1093.61c-30.97,0-56.16,25.19-56.16,56.16c0,30.97,25.19,56.16,56.16,56.16
			c30.96,0,56.16-25.19,56.16-56.16C-1662.54-1068.42-1687.74-1093.61-1718.7-1093.61z M-1718.7-1089.33
			c3.65,0,7.21,0.39,10.65,1.11c17.8,6.86,30.45,24.08,30.45,44.31c0,26.27-21.29,47.56-47.56,47.56
			c-20.23,0-37.45-12.65-44.31-30.46c-0.72-3.44-1.11-7-1.11-10.65C-1770.58-1066.06-1747.31-1089.33-1718.7-1089.33z"/>
		<path class="st2" d="M-1686.11-947.15c-19.15,0-34.74,15.58-34.74,34.74c0,19.16,15.58,34.74,34.74,34.74
			c19.16,0,34.74-15.58,34.74-34.74C-1651.37-931.57-1666.95-947.15-1686.11-947.15z M-1686.11-942.87c1.68,0,3.33,0.17,4.94,0.44
			c8.93,4.21,15.15,13.23,15.15,23.76c0,14.55-11.79,26.34-26.34,26.34c-10.53,0-19.55-6.22-23.76-15.15
			c-0.26-1.61-0.44-3.25-0.44-4.93C-1716.56-929.21-1702.9-942.87-1686.11-942.87z"/>
		<path class="st2" d="M-1602.18-1025.16c-15.89,0-28.81,12.92-28.81,28.81s12.92,28.81,28.81,28.81
			c15.89,0,28.81-12.92,28.81-28.81S-1586.29-1025.16-1602.18-1025.16z M-1602.18-1020.87c1.87,0,3.69,0.23,5.45,0.63
			c6.79,3.66,11.44,10.74,11.44,19c0,12.03-9.75,21.78-21.78,21.78c-8.26,0-15.34-4.65-19-11.44c-0.4-1.76-0.63-3.57-0.63-5.45
			C-1626.7-1009.87-1615.7-1020.87-1602.18-1020.87z"/>
	</g>
</g>
</svg>
