<?xml version="1.0" encoding="utf-8"?>
<!-- Generator: Adobe Illustrator 23.0.3, SVG Export Plug-In . SVG Version: 6.00 Build 0)  -->
<svg version="1.1" id="Layer_1" xmlns="http://www.w3.org/2000/svg" xmlns:xlink="http://www.w3.org/1999/xlink" x="0px" y="0px"
	 viewBox="0 0 1920 1080" style="enable-background:new 0 0 1920 1080;" xml:space="preserve">
<style type="text/css">
	.st0{fill:#FFFFFF;}
	.st1{fill:#3E92CC;}
	.st2{fill:#0C7489;}
</style>
<g>
	<path class="st0" d="M926.1,529.7l-0.3-208.1L824,497.4h-8.7L713.5,322.3v207.4h-17.4V286.5H711l108.7,187.9l108.8-187.9h14.6
		l0.3,243.2H926.1z"/>
	<path class="st0" d="M1066.8,515.3c-19.2-10.8-34.3-25.5-45.3-44.3c-11-18.8-16.5-39.7-16.5-62.9c0-23.1,5.5-44.1,16.5-62.9
		c11-18.8,26.1-33.5,45.3-44.3c19.2-10.8,40.8-16.2,64.6-16.2s45.4,5.3,64.6,16c19.2,10.6,34.3,25.4,45.3,44.1
		c11,18.8,16.5,39.9,16.5,63.2c0,23.4-5.5,44.5-16.5,63.2c-11,18.8-26.1,33.5-45.3,44.1c-19.2,10.7-40.8,16-64.6,16
		C1107.6,531.4,1086,526,1066.8,515.3z M1186.6,501.2c16.4-9.3,29.4-22.1,38.9-38.4c9.5-16.3,14.2-34.6,14.2-54.7
		c0-20.1-4.8-38.4-14.2-54.7s-22.5-29.1-38.9-38.4s-34.9-13.9-55.2-13.9c-20.4,0-38.9,4.6-55.4,13.9c-16.6,9.3-29.6,22.1-39.1,38.4
		c-9.5,16.3-14.2,34.6-14.2,54.7c0,20.2,4.7,38.4,14.2,54.7c9.5,16.3,22.5,29.1,39.1,38.4c16.6,9.3,35,13.9,55.4,13.9
		C1151.8,515.1,1170.2,510.5,1186.6,501.2z"/>
	<path class="st0" d="M1357.9,515.3c-19.2-10.8-34.3-25.5-45.3-44.3c-11-18.8-16.5-39.7-16.5-62.9c0-23.1,5.5-44.1,16.5-62.9
		c11-18.8,26.1-33.5,45.3-44.3c19.2-10.8,40.8-16.2,64.6-16.2s45.4,5.3,64.6,16c19.2,10.6,34.3,25.4,45.3,44.1
		c11,18.8,16.5,39.9,16.5,63.2c0,23.4-5.5,44.5-16.5,63.2c-11,18.8-26.1,33.5-45.3,44.1c-19.2,10.7-40.8,16-64.6,16
		C1398.7,531.4,1377.1,526,1357.9,515.3z M1477.8,501.2c16.4-9.3,29.4-22.1,38.9-38.4c9.5-16.3,14.2-34.6,14.2-54.7
		c0-20.1-4.8-38.4-14.2-54.7s-22.5-29.1-38.9-38.4s-34.9-13.9-55.2-13.9c-20.4,0-38.9,4.6-55.4,13.9c-16.6,9.3-29.6,22.1-39.1,38.4
		c-9.5,16.3-14.2,34.6-14.2,54.7c0,20.2,4.7,38.4,14.2,54.7c9.5,16.3,22.5,29.1,39.1,38.4c16.6,9.3,35,13.9,55.4,13.9
		C1442.9,515.1,1461.3,510.5,1477.8,501.2z"/>
	<path class="st0" d="M1808.5,286.5v243.2h-14.6l-165.7-211.2v211.2h-17.7V286.5h14.9l165.4,211.2V286.5H1808.5z"/>
	<path class="st0" d="M821.1,724.4c6,6.9,9,15.8,9,26.8c0,13.6-5,24-14.9,31.3s-24.6,11-44.1,11h-71.3V633.4h66.8
		c17.4,0,30.9,3.5,40.6,10.6c9.7,7.1,14.5,17.2,14.5,30.3c0,9.1-2.4,16.8-7.2,23.1c-4.8,6.3-11.3,10.8-19.5,13.5
		C806.3,713.1,815,717.5,821.1,724.4z M711.4,643.5v63.8h54.7c14,0,24.8-2.7,32.4-8.1c7.5-5.4,11.3-13.4,11.3-23.9
		c0-10.4-3.8-18.3-11.3-23.7s-18.3-8.1-32.4-8.1H711.4z M806.4,775.3c8-5.4,12-13.8,12-25c0-11.3-4-19.6-12-24.9
		c-8-5.3-19.8-8-35.3-8h-59.7v66.1h59.7C786.7,783.4,798.4,780.7,806.4,775.3z"/>
	<path class="st0" d="M970.8,748.4h-92.8l-20.4,45H845l73.6-160.1h11.7l73.6,160.1h-12.6L970.8,748.4z M966.4,738.6l-42.1-92.4
		l-41.9,92.4H966.4z"/>
	<path class="st0" d="M1033,633.4h11.7V783h92.2v10.5H1033L1033,633.4L1033,633.4z"/>
	<path class="st0" d="M1166.8,633.4h11.7V783h92.2v10.5h-103.8L1166.8,633.4L1166.8,633.4z"/>
	<path class="st0" d="M1322.7,784c-12.7-7.1-22.6-16.8-29.8-29.2c-7.2-12.4-10.9-26.2-10.9-41.4c0-15.2,3.6-29,10.9-41.4
		c7.2-12.4,17.2-22.1,29.8-29.2c12.7-7.1,26.8-10.6,42.5-10.6c15.7,0,29.9,3.5,42.5,10.5c12.7,7,22.6,16.7,29.8,29
		c7.2,12.4,10.9,26.2,10.9,41.6s-3.6,29.3-10.9,41.6c-7.2,12.4-17.2,22-29.8,29c-12.7,7-26.8,10.5-42.5,10.5
		C1349.6,794.6,1335.4,791.1,1322.7,784z M1401.6,774.7c10.8-6.1,19.4-14.5,25.6-25.3c6.2-10.8,9.4-22.8,9.4-36
		c0-13.3-3.1-25.3-9.4-36s-14.8-19.2-25.6-25.3c-10.8-6.1-22.9-9.1-36.4-9.1c-13.4,0-25.6,3-36.5,9.1c-10.9,6.1-19.5,14.5-25.7,25.3
		c-6.3,10.8-9.4,22.8-9.4,36c0,13.3,3.1,25.3,9.4,36c6.2,10.8,14.8,19.2,25.7,25.3c10.9,6.1,23.1,9.1,36.5,9.1
		C1378.7,783.9,1390.8,780.8,1401.6,774.7z"/>
	<path class="st0" d="M1514.4,784c-12.7-7.1-22.6-16.8-29.8-29.2c-7.2-12.4-10.9-26.2-10.9-41.4c0-15.2,3.6-29,10.9-41.4
		c7.2-12.4,17.2-22.1,29.8-29.2c12.7-7.1,26.8-10.6,42.5-10.6c15.7,0,29.9,3.5,42.5,10.5c12.7,7,22.6,16.7,29.8,29
		c7.2,12.4,10.9,26.2,10.9,41.6s-3.6,29.3-10.9,41.6c-7.2,12.4-17.2,22-29.8,29c-12.7,7-26.8,10.5-42.5,10.5
		C1541.2,794.6,1527,791.1,1514.4,784z M1593.3,774.7c10.8-6.1,19.4-14.5,25.6-25.3c6.2-10.8,9.4-22.8,9.4-36
		c0-13.3-3.1-25.3-9.4-36s-14.8-19.2-25.6-25.3c-10.8-6.1-22.9-9.1-36.4-9.1c-13.4,0-25.6,3-36.5,9.1c-10.9,6.1-19.5,14.5-25.7,25.3
		c-6.3,10.8-9.4,22.8-9.4,36c0,13.3,3.1,25.3,9.4,36c6.2,10.8,14.8,19.2,25.7,25.3c10.9,6.1,23.1,9.1,36.5,9.1
		C1570.3,783.9,1582.4,780.8,1593.3,774.7z"/>
	<path class="st0" d="M1811,633.4v160.1h-9.6l-109.1-139v139h-11.7V633.4h9.8l108.9,139v-139H1811z"/>
	<g>
		<path class="st0" d="M524,461.7c0-96.6-78.6-175.2-175.2-175.2s-175.2,78.6-175.2,175.2c0,2.2,0.1,4.4,0.2,6.6l-0.1,0
			c-0.2,1.6-23,158.1-55.5,221c-0.4,0.7-0.7,1.4-1.1,2c-0.3,0.7-0.7,1.3-1.1,2l0.1,0c-4.4,9.2-7,19.5-7,30.4
			c0,39.1,31.8,70.9,70.9,70.9c32.7,0,60.2-22.3,68.3-52.5c23-55,126.1-101.6,160.3-115.9c3.3-1.2,6.6-2.5,9.8-3.9
			c0.7-0.3,1.2-0.5,1.3-0.5l0-0.1C481.1,594.5,524,533,524,461.7z M348.8,299.4c10.9,0,21.6,1.1,31.9,3.2
			c56,21.2,95.9,75.2,95.9,138.7c0,81.9-66.4,148.2-148.2,148.2c-63.4,0-117.5-39.8-138.6-95.9c-2.1-10.3-3.2-21-3.2-31.9
			C186.4,372.2,259.3,299.4,348.8,299.4z M180,665.8c8.9,0,17.3,2.1,24.9,5.7c12.6,10.1,20.7,25.5,20.7,42.9c0,30.4-24.6,55-55,55
			c-17.4,0-32.8-8.1-42.9-20.7c-3.6-7.5-5.7-16-5.7-24.9c0-9.5,2.3-18.4,6.3-26.3c0.4-0.7,0.8-1.4,1.1-2.2
			C139.5,677.7,158.4,665.8,180,665.8z M250.2,714.4c-4.6-34.6-34.3-61.5-70.2-61.5c-13.6,0-26.3,3.9-37.1,10.6
			c17-47.9,30-113.4,37.2-154.6c20.7,73.7,88.4,128,168.7,128c2.2,0,4.4-0.1,6.6-0.2C318.9,655.3,274.9,682.5,250.2,714.4z"/>
		<path class="st0" d="M291.3,341.4c-31,0-56.2,25.2-56.2,56.2s25.2,56.2,56.2,56.2c31,0,56.2-25.2,56.2-56.2
			S322.3,341.4,291.3,341.4z M291.3,345.7c3.6,0,7.2,0.4,10.6,1.1c17.8,6.9,30.5,24.1,30.5,44.3c0,26.3-21.3,47.6-47.6,47.6
			c-20.2,0-37.4-12.6-44.3-30.5c-0.7-3.4-1.1-7-1.1-10.6C239.4,368.9,262.7,345.7,291.3,345.7z"/>
		<path class="st0" d="M323.9,487.9c-19.1,0-34.7,15.6-34.7,34.7c0,19.2,15.6,34.7,34.7,34.7s34.7-15.6,34.7-34.7
			C358.6,503.4,343,487.9,323.9,487.9z M323.9,492.1c1.7,0,3.3,0.2,4.9,0.4c8.9,4.2,15.1,13.2,15.1,23.8c0,14.5-11.8,26.3-26.3,26.3
			c-10.5,0-19.5-6.2-23.8-15.2c-0.3-1.6-0.4-3.2-0.4-4.9C293.4,505.8,307.1,492.1,323.9,492.1z"/>
		<path class="st0" d="M407.8,409.8c-15.9,0-28.8,12.9-28.8,28.8c0,15.9,12.9,28.8,28.8,28.8c15.9,0,28.8-12.9,28.8-28.8
			C436.6,422.8,423.7,409.8,407.8,409.8z M407.8,414.1c1.9,0,3.7,0.2,5.5,0.6c6.8,3.7,11.4,10.7,11.4,19c0,12-9.8,21.8-21.8,21.8
			c-8.3,0-15.3-4.6-19-11.4c-0.4-1.8-0.6-3.6-0.6-5.5C383.3,425.1,394.3,414.1,407.8,414.1z"/>
	</g>
</g>
<g>
	<path d="M2936.1,529.7l-0.4-208.1L2834,497.4h-8.7l-101.8-175.1v207.4h-17.4V286.5h14.9l108.7,187.9l108.7-187.9h14.6l0.3,243.2
		H2936.1z"/>
	<path d="M3076.8,515.3c-19.2-10.8-34.3-25.5-45.3-44.3c-11-18.8-16.5-39.7-16.5-62.9c0-23.1,5.5-44.1,16.5-62.9
		c11-18.8,26.1-33.5,45.3-44.3c19.2-10.8,40.8-16.2,64.6-16.2s45.4,5.3,64.6,16c19.2,10.6,34.3,25.4,45.3,44.1
		c11,18.8,16.5,39.9,16.5,63.2c0,23.4-5.5,44.5-16.5,63.2c-11,18.8-26.1,33.5-45.3,44.1c-19.2,10.7-40.8,16-64.6,16
		C3117.6,531.4,3096,526,3076.8,515.3z M3196.6,501.2c16.4-9.3,29.4-22.1,38.9-38.4c9.5-16.3,14.2-34.6,14.2-54.7
		c0-20.1-4.8-38.4-14.2-54.7s-22.5-29.1-38.9-38.4s-34.9-13.9-55.2-13.9c-20.4,0-38.9,4.6-55.4,13.9c-16.6,9.3-29.6,22.1-39.1,38.4
		c-9.5,16.3-14.2,34.6-14.2,54.7c0,20.2,4.7,38.4,14.2,54.7c9.5,16.3,22.5,29.1,39.1,38.4c16.6,9.3,35,13.9,55.4,13.9
		C3161.8,515.1,3180.2,510.5,3196.6,501.2z"/>
	<path d="M3367.9,515.3c-19.2-10.8-34.3-25.5-45.3-44.3c-11-18.8-16.5-39.7-16.5-62.9c0-23.1,5.5-44.1,16.5-62.9
		c11-18.8,26.1-33.5,45.3-44.3c19.2-10.8,40.8-16.2,64.6-16.2s45.4,5.3,64.6,16c19.2,10.6,34.3,25.4,45.3,44.1
		c11,18.8,16.5,39.9,16.5,63.2c0,23.4-5.5,44.5-16.5,63.2c-11,18.8-26.1,33.5-45.3,44.1c-19.2,10.7-40.8,16-64.6,16
		C3408.7,531.4,3387.1,526,3367.9,515.3z M3487.8,501.2c16.4-9.3,29.4-22.1,38.9-38.4c9.5-16.3,14.2-34.6,14.2-54.7
		c0-20.1-4.8-38.4-14.2-54.7s-22.5-29.1-38.9-38.4c-16.4-9.3-34.9-13.9-55.2-13.9c-20.4,0-38.9,4.6-55.4,13.9
		c-16.6,9.3-29.6,22.1-39.1,38.4c-9.5,16.3-14.2,34.6-14.2,54.7c0,20.2,4.7,38.4,14.2,54.7c9.5,16.3,22.5,29.1,39.1,38.4
		c16.6,9.3,35,13.9,55.4,13.9C3452.9,515.1,3471.3,510.5,3487.8,501.2z"/>
	<path d="M3818.5,286.5v243.2h-14.6l-165.7-211.2v211.2h-17.7V286.5h14.9l165.4,211.2V286.5H3818.5z"/>
	<path d="M2831.1,724.4c6,6.9,9,15.8,9,26.8c0,13.6-5,24-14.9,31.3c-9.9,7.3-24.6,11-44.1,11h-71.4V633.4h66.8
		c17.4,0,30.9,3.5,40.6,10.6c9.7,7.1,14.5,17.2,14.5,30.3c0,9.1-2.4,16.8-7.2,23.1c-4.8,6.3-11.3,10.8-19.6,13.5
		C2816.3,713.1,2825.1,717.5,2831.1,724.4z M2721.4,643.5v63.8h54.7c14,0,24.8-2.7,32.4-8.1s11.3-13.4,11.3-23.9
		c0-10.4-3.8-18.3-11.3-23.7s-18.3-8.1-32.4-8.1H2721.4z M2816.4,775.3c8-5.4,12-13.8,12-25c0-11.3-4-19.6-12-24.9
		c-8-5.3-19.8-8-35.3-8h-59.7v66.1h59.7C2796.7,783.4,2808.4,780.7,2816.4,775.3z"/>
	<path d="M2980.8,748.4h-92.9l-20.4,45H2855l73.6-160.1h11.7l73.6,160.1h-12.6L2980.8,748.4z M2976.4,738.6l-42.1-92.4l-41.9,92.4
		H2976.4z"/>
	<path d="M3043,633.4h11.7V783h92.2v10.5h-103.8L3043,633.4L3043,633.4z"/>
	<path d="M3176.8,633.4h11.7V783h92.2v10.5h-103.8L3176.8,633.4L3176.8,633.4z"/>
	<path d="M3332.7,784c-12.7-7.1-22.6-16.8-29.9-29.2c-7.2-12.4-10.9-26.2-10.9-41.4c0-15.2,3.6-29,10.9-41.4
		c7.2-12.4,17.2-22.1,29.9-29.2c12.6-7.1,26.8-10.6,42.5-10.6c15.7,0,29.9,3.5,42.5,10.5c12.6,7,22.6,16.7,29.8,29
		c7.2,12.4,10.9,26.2,10.9,41.6s-3.6,29.3-10.9,41.6c-7.2,12.4-17.2,22-29.8,29c-12.7,7-26.8,10.5-42.5,10.5
		C3359.6,794.6,3345.4,791.1,3332.7,784z M3411.6,774.7c10.8-6.1,19.4-14.5,25.6-25.3c6.2-10.8,9.4-22.8,9.4-36
		c0-13.3-3.1-25.3-9.4-36s-14.8-19.2-25.6-25.3c-10.8-6.1-22.9-9.1-36.4-9.1c-13.4,0-25.6,3-36.5,9.1c-10.9,6.1-19.5,14.5-25.7,25.3
		c-6.3,10.8-9.4,22.8-9.4,36c0,13.3,3.1,25.3,9.4,36c6.2,10.8,14.8,19.2,25.7,25.3c10.9,6.1,23.1,9.1,36.5,9.1
		C3388.7,783.9,3400.8,780.8,3411.6,774.7z"/>
	<path d="M3524.4,784c-12.7-7.1-22.6-16.8-29.9-29.2c-7.2-12.4-10.9-26.2-10.9-41.4c0-15.2,3.6-29,10.9-41.4
		c7.2-12.4,17.2-22.1,29.9-29.2c12.6-7.1,26.8-10.6,42.5-10.6c15.7,0,29.9,3.5,42.5,10.5c12.6,7,22.6,16.7,29.8,29
		c7.2,12.4,10.9,26.2,10.9,41.6s-3.6,29.3-10.9,41.6c-7.2,12.4-17.2,22-29.8,29c-12.7,7-26.8,10.5-42.5,10.5
		C3551.2,794.6,3537,791.1,3524.4,784z M3603.3,774.7c10.8-6.1,19.4-14.5,25.6-25.3c6.2-10.8,9.4-22.8,9.4-36
		c0-13.3-3.1-25.3-9.4-36s-14.8-19.2-25.6-25.3c-10.8-6.1-22.9-9.1-36.4-9.1c-13.4,0-25.6,3-36.5,9.1c-10.9,6.1-19.5,14.5-25.7,25.3
		c-6.3,10.8-9.4,22.8-9.4,36c0,13.3,3.1,25.3,9.4,36c6.2,10.8,14.8,19.2,25.7,25.3c10.9,6.1,23.1,9.1,36.5,9.1
		C3580.3,783.9,3592.4,780.8,3603.3,774.7z"/>
	<path d="M3821,633.4v160.1h-9.6l-109.1-139v139h-11.7V633.4h9.8l108.9,139v-139H3821z"/>
	<g>
		<path d="M2534,461.7c0-96.6-78.6-175.2-175.2-175.2s-175.2,78.6-175.2,175.2c0,2.2,0.1,4.4,0.2,6.6l-0.1,0
			c-0.2,1.6-23,158.1-55.5,221c-0.4,0.7-0.7,1.4-1.1,2c-0.4,0.7-0.7,1.3-1.1,2l0.1,0c-4.4,9.2-7,19.5-7,30.4
			c0,39.1,31.8,70.9,70.9,70.9c32.7,0,60.2-22.3,68.3-52.5c23-55,126.1-101.6,160.3-115.9c3.3-1.2,6.6-2.5,9.8-3.9
			c0.7-0.3,1.2-0.5,1.3-0.5l0-0.1C2491.1,594.5,2534,533,2534,461.7z M2358.8,299.4c10.9,0,21.6,1.1,31.9,3.2
			c56,21.2,95.9,75.2,95.9,138.7c0,81.9-66.4,148.2-148.2,148.2c-63.4,0-117.5-39.8-138.6-95.9c-2.1-10.3-3.2-21-3.2-31.9
			C2196.4,372.2,2269.3,299.4,2358.8,299.4z M2190,665.8c8.9,0,17.3,2.1,24.9,5.7c12.6,10.1,20.7,25.5,20.7,42.9
			c0,30.4-24.6,55-55,55c-17.4,0-32.8-8.1-42.9-20.7c-3.6-7.5-5.7-16-5.7-24.9c0-9.5,2.3-18.4,6.4-26.3c0.4-0.7,0.8-1.4,1.1-2.2
			C2149.5,677.7,2168.4,665.8,2190,665.8z M2260.2,714.4c-4.6-34.6-34.3-61.5-70.2-61.5c-13.6,0-26.3,3.9-37.1,10.6
			c17-47.9,30-113.4,37.2-154.6c20.7,73.7,88.4,128,168.7,128c2.2,0,4.4-0.1,6.6-0.2C2328.9,655.3,2284.9,682.5,2260.2,714.4z"/>
		<path d="M2301.3,341.4c-31,0-56.2,25.2-56.2,56.2s25.2,56.2,56.2,56.2c31,0,56.2-25.2,56.2-56.2S2332.3,341.4,2301.3,341.4z
			 M2301.3,345.7c3.6,0,7.2,0.4,10.6,1.1c17.8,6.9,30.4,24.1,30.4,44.3c0,26.3-21.3,47.6-47.6,47.6c-20.2,0-37.4-12.6-44.3-30.5
			c-0.7-3.4-1.1-7-1.1-10.6C2249.4,368.9,2272.7,345.7,2301.3,345.7z"/>
		<path d="M2333.9,487.9c-19.1,0-34.7,15.6-34.7,34.7c0,19.2,15.6,34.7,34.7,34.7s34.7-15.6,34.7-34.7
			C2368.6,503.4,2353.1,487.9,2333.9,487.9z M2333.9,492.1c1.7,0,3.3,0.2,4.9,0.4c8.9,4.2,15.1,13.2,15.1,23.8
			c0,14.5-11.8,26.3-26.3,26.3c-10.5,0-19.6-6.2-23.8-15.2c-0.3-1.6-0.4-3.2-0.4-4.9C2303.4,505.8,2317.1,492.1,2333.9,492.1z"/>
		<path d="M2417.8,409.8c-15.9,0-28.8,12.9-28.8,28.8c0,15.9,12.9,28.8,28.8,28.8c15.9,0,28.8-12.9,28.8-28.8
			C2446.6,422.8,2433.7,409.8,2417.8,409.8z M2417.8,414.1c1.9,0,3.7,0.2,5.4,0.6c6.8,3.7,11.4,10.7,11.4,19
			c0,12-9.8,21.8-21.8,21.8c-8.3,0-15.3-4.6-19-11.4c-0.4-1.8-0.6-3.6-0.6-5.5C2393.3,425.1,2404.3,414.1,2417.8,414.1z"/>
	</g>
</g>
<g>
	<path class="st1" d="M2936.1-905.3l-0.4-208.1L2834-937.6h-8.7l-101.8-175.1v207.4h-17.4v-243.2h14.9l108.7,187.9l108.7-187.9h14.6
		l0.3,243.2L2936.1-905.3L2936.1-905.3z"/>
	<path class="st1" d="M3076.8-919.7c-19.2-10.8-34.3-25.5-45.3-44.3c-11-18.8-16.5-39.7-16.5-62.9c0-23.2,5.5-44.1,16.5-62.9
		c11-18.8,26.1-33.5,45.3-44.3c19.2-10.8,40.8-16.2,64.6-16.2s45.4,5.3,64.6,16c19.2,10.7,34.3,25.4,45.3,44.1
		c11,18.8,16.5,39.8,16.5,63.2c0,23.4-5.5,44.5-16.5,63.2c-11,18.8-26.1,33.5-45.3,44.1c-19.2,10.7-40.8,16-64.6,16
		C3117.6-903.6,3096-909,3076.8-919.7z M3196.6-933.8c16.4-9.3,29.4-22.1,38.9-38.4c9.5-16.3,14.2-34.6,14.2-54.7
		c0-20.1-4.8-38.4-14.2-54.7s-22.5-29.1-38.9-38.4c-16.4-9.3-34.9-13.9-55.2-13.9c-20.4,0-38.9,4.6-55.4,13.9
		c-16.6,9.3-29.6,22.1-39.1,38.4c-9.5,16.3-14.2,34.6-14.2,54.7c0,20.2,4.7,38.4,14.2,54.7c9.5,16.3,22.5,29.1,39.1,38.4
		c16.6,9.3,35,13.9,55.4,13.9C3161.8-919.9,3180.2-924.5,3196.6-933.8z"/>
	<path class="st1" d="M3367.9-919.7c-19.2-10.8-34.3-25.5-45.3-44.3c-11-18.8-16.5-39.7-16.5-62.9c0-23.2,5.5-44.1,16.5-62.9
		c11-18.8,26.1-33.5,45.3-44.3c19.2-10.8,40.8-16.2,64.6-16.2s45.4,5.3,64.6,16c19.2,10.7,34.3,25.4,45.3,44.1
		c11,18.8,16.5,39.8,16.5,63.2c0,23.4-5.5,44.5-16.5,63.2c-11,18.8-26.1,33.5-45.3,44.1c-19.2,10.7-40.8,16-64.6,16
		C3408.7-903.6,3387.1-909,3367.9-919.7z M3487.8-933.8c16.4-9.3,29.4-22.1,38.9-38.4c9.5-16.3,14.2-34.6,14.2-54.7
		c0-20.1-4.8-38.4-14.2-54.7s-22.5-29.1-38.9-38.4c-16.4-9.3-34.9-13.9-55.2-13.9c-20.4,0-38.9,4.6-55.4,13.9
		c-16.6,9.3-29.6,22.1-39.1,38.4c-9.5,16.3-14.2,34.6-14.2,54.7c0,20.2,4.7,38.4,14.2,54.7c9.5,16.3,22.5,29.1,39.1,38.4
		c16.6,9.3,35,13.9,55.4,13.9C3452.9-919.9,3471.3-924.5,3487.8-933.8z"/>
	<path class="st1" d="M3818.5-1148.5v243.2h-14.6l-165.7-211.2v211.2h-17.7v-243.2h14.9l165.4,211.2v-211.2H3818.5z"/>
	<path class="st1" d="M2831.1-710.6c6,6.9,9,15.8,9,26.8c0,13.6-5,24-14.9,31.3c-9.9,7.3-24.6,11-44.1,11h-71.4v-160.1h66.8
		c17.4,0,30.9,3.5,40.6,10.6c9.7,7.1,14.5,17.2,14.5,30.3c0,9.1-2.4,16.8-7.2,23.1c-4.8,6.3-11.3,10.8-19.6,13.5
		C2816.3-721.9,2825.1-717.5,2831.1-710.6z M2721.4-791.5v63.8h54.7c14,0,24.8-2.7,32.4-8.1s11.3-13.4,11.3-23.9
		c0-10.4-3.8-18.3-11.3-23.7s-18.3-8.1-32.4-8.1H2721.4z M2816.4-659.7c8-5.4,12-13.8,12-25c0-11.3-4-19.6-12-24.9
		c-8-5.3-19.8-8-35.3-8h-59.7v66.1h59.7C2796.7-651.6,2808.4-654.3,2816.4-659.7z"/>
	<path class="st1" d="M2980.8-686.6h-92.9l-20.4,45H2855l73.6-160.1h11.7l73.6,160.1h-12.6L2980.8-686.6z M2976.4-696.4l-42.1-92.4
		l-41.9,92.4H2976.4z"/>
	<path class="st1" d="M3043-801.6h11.7V-652h92.2v10.5h-103.8L3043-801.6L3043-801.6z"/>
	<path class="st1" d="M3176.8-801.6h11.7V-652h92.2v10.5h-103.8L3176.8-801.6L3176.8-801.6z"/>
	<path class="st1" d="M3332.7-651c-12.7-7.1-22.6-16.8-29.9-29.2c-7.2-12.4-10.9-26.2-10.9-41.4c0-15.2,3.6-29,10.9-41.4
		c7.2-12.4,17.2-22.1,29.9-29.2c12.6-7.1,26.8-10.6,42.5-10.6c15.7,0,29.9,3.5,42.5,10.5c12.6,7,22.6,16.7,29.8,29
		c7.2,12.4,10.9,26.2,10.9,41.6s-3.6,29.3-10.9,41.6c-7.2,12.4-17.2,22-29.8,29c-12.7,7-26.8,10.5-42.5,10.5
		C3359.6-640.4,3345.4-643.9,3332.7-651z M3411.6-660.3c10.8-6.1,19.4-14.5,25.6-25.3c6.2-10.8,9.4-22.8,9.4-36
		c0-13.3-3.1-25.3-9.4-36s-14.8-19.2-25.6-25.3c-10.8-6.1-22.9-9.1-36.4-9.1c-13.4,0-25.6,3-36.5,9.1c-10.9,6.1-19.5,14.5-25.7,25.3
		c-6.3,10.8-9.4,22.8-9.4,36c0,13.3,3.1,25.3,9.4,36c6.2,10.8,14.8,19.2,25.7,25.3c10.9,6.1,23.1,9.1,36.5,9.1
		C3388.7-651.1,3400.8-654.2,3411.6-660.3z"/>
	<path class="st1" d="M3524.4-651c-12.7-7.1-22.6-16.8-29.9-29.2c-7.2-12.4-10.9-26.2-10.9-41.4c0-15.2,3.6-29,10.9-41.4
		c7.2-12.4,17.2-22.1,29.9-29.2c12.6-7.1,26.8-10.6,42.5-10.6c15.7,0,29.9,3.5,42.5,10.5c12.6,7,22.6,16.7,29.8,29
		c7.2,12.4,10.9,26.2,10.9,41.6s-3.6,29.3-10.9,41.6c-7.2,12.4-17.2,22-29.8,29c-12.7,7-26.8,10.5-42.5,10.5
		C3551.2-640.4,3537-643.9,3524.4-651z M3603.3-660.3c10.8-6.1,19.4-14.5,25.6-25.3c6.2-10.8,9.4-22.8,9.4-36
		c0-13.3-3.1-25.3-9.4-36s-14.8-19.2-25.6-25.3c-10.8-6.1-22.9-9.1-36.4-9.1c-13.4,0-25.6,3-36.5,9.1c-10.9,6.1-19.5,14.5-25.7,25.3
		c-6.3,10.8-9.4,22.8-9.4,36c0,13.3,3.1,25.3,9.4,36c6.2,10.8,14.8,19.2,25.7,25.3c10.9,6.1,23.1,9.1,36.5,9.1
		C3580.3-651.1,3592.4-654.2,3603.3-660.3z"/>
	<path class="st1" d="M3821-801.6v160.1h-9.6l-109.1-139v139h-11.7v-160.1h9.8l108.9,139v-139H3821z"/>
	<g>
		<path class="st1" d="M2534-973.3c0-96.6-78.6-175.2-175.2-175.2s-175.2,78.6-175.2,175.2c0,2.2,0.1,4.4,0.2,6.6l-0.1,0
			c-0.2,1.6-23,158.1-55.5,221c-0.4,0.7-0.7,1.4-1.1,2c-0.4,0.7-0.7,1.3-1.1,2l0.1,0c-4.4,9.2-7,19.5-7,30.4
			c0,39.1,31.8,70.9,70.9,70.9c32.7,0,60.2-22.3,68.3-52.5c23-55,126.1-101.6,160.3-115.9c3.3-1.2,6.6-2.5,9.8-3.9
			c0.7-0.3,1.2-0.5,1.3-0.5l0-0.1C2491.1-840.5,2534-902,2534-973.3z M2358.8-1135.6c10.9,0,21.6,1.1,31.9,3.2
			c56,21.2,95.9,75.2,95.9,138.7c0,81.9-66.4,148.2-148.2,148.2c-63.4,0-117.5-39.8-138.6-95.8c-2.1-10.3-3.2-21-3.2-31.9
			C2196.4-1062.8,2269.3-1135.6,2358.8-1135.6z M2190-769.2c8.9,0,17.3,2.1,24.9,5.7c12.6,10.1,20.7,25.5,20.7,42.9
			c0,30.4-24.6,55-55,55c-17.4,0-32.8-8.1-42.9-20.7c-3.6-7.5-5.7-16-5.7-24.9c0-9.5,2.3-18.4,6.4-26.3c0.4-0.7,0.8-1.4,1.1-2.2
			C2149.5-757.3,2168.4-769.2,2190-769.2z M2260.2-720.6c-4.6-34.6-34.3-61.5-70.2-61.5c-13.6,0-26.3,3.9-37.1,10.6
			c17-47.9,30-113.4,37.2-154.6c20.7,73.7,88.4,128,168.7,128c2.2,0,4.4-0.1,6.6-0.2C2328.9-779.7,2284.9-752.5,2260.2-720.6z"/>
		<path class="st1" d="M2301.3-1093.6c-31,0-56.2,25.2-56.2,56.2c0,31,25.2,56.2,56.2,56.2c31,0,56.2-25.2,56.2-56.2
			C2357.5-1068.4,2332.3-1093.6,2301.3-1093.6z M2301.3-1089.3c3.6,0,7.2,0.4,10.6,1.1c17.8,6.9,30.4,24.1,30.4,44.3
			c0,26.3-21.3,47.6-47.6,47.6c-20.2,0-37.4-12.7-44.3-30.5c-0.7-3.4-1.1-7-1.1-10.7C2249.4-1066.1,2272.7-1089.3,2301.3-1089.3z"/>
		<path class="st1" d="M2333.9-947.2c-19.1,0-34.7,15.6-34.7,34.7s15.6,34.7,34.7,34.7s34.7-15.6,34.7-34.7
			S2353.1-947.2,2333.9-947.2z M2333.9-942.9c1.7,0,3.3,0.2,4.9,0.4c8.9,4.2,15.1,13.2,15.1,23.8c0,14.5-11.8,26.3-26.3,26.3
			c-10.5,0-19.6-6.2-23.8-15.2c-0.3-1.6-0.4-3.2-0.4-4.9C2303.4-929.2,2317.1-942.9,2333.9-942.9z"/>
		<path class="st1" d="M2417.8-1025.2c-15.9,0-28.8,12.9-28.8,28.8s12.9,28.8,28.8,28.8c15.9,0,28.8-12.9,28.8-28.8
			S2433.7-1025.2,2417.8-1025.2z M2417.8-1020.9c1.9,0,3.7,0.2,5.4,0.6c6.8,3.7,11.4,10.7,11.4,19c0,12-9.8,21.8-21.8,21.8
			c-8.3,0-15.3-4.7-19-11.4c-0.4-1.8-0.6-3.6-0.6-5.5C2393.3-1009.9,2404.3-1020.9,2417.8-1020.9z"/>
	</g>
</g>
<g>
	<path class="st2" d="M926.1-905.3l-0.3-208.1L824-937.6h-8.7l-101.8-175.1v207.4h-17.4v-243.2h14.9l108.7,187.9l108.7-187.9h14.6
		l0.3,243.2H926.1z"/>
	<path class="st2" d="M1066.8-919.7c-19.2-10.8-34.3-25.5-45.3-44.3c-11-18.8-16.5-39.7-16.5-62.9c0-23.2,5.5-44.1,16.5-62.9
		c11-18.8,26.1-33.5,45.3-44.3c19.2-10.8,40.8-16.2,64.6-16.2s45.4,5.3,64.6,16c19.2,10.7,34.3,25.4,45.3,44.1
		c11,18.8,16.5,39.8,16.5,63.2c0,23.4-5.5,44.5-16.5,63.2c-11,18.8-26.1,33.5-45.3,44.1c-19.2,10.7-40.8,16-64.6,16
		C1107.6-903.6,1086-909,1066.8-919.7z M1186.6-933.8c16.4-9.3,29.4-22.1,38.9-38.4c9.5-16.3,14.2-34.6,14.2-54.7
		c0-20.1-4.8-38.4-14.2-54.7s-22.5-29.1-38.9-38.4c-16.4-9.3-34.9-13.9-55.2-13.9c-20.4,0-38.9,4.6-55.4,13.9
		c-16.6,9.3-29.6,22.1-39.1,38.4c-9.5,16.3-14.2,34.6-14.2,54.7c0,20.2,4.7,38.4,14.2,54.7c9.5,16.3,22.5,29.1,39.1,38.4
		c16.6,9.3,35,13.9,55.4,13.9C1151.8-919.9,1170.2-924.5,1186.6-933.8z"/>
	<path class="st2" d="M1357.9-919.7c-19.2-10.8-34.3-25.5-45.3-44.3c-11-18.8-16.5-39.7-16.5-62.9c0-23.2,5.5-44.1,16.5-62.9
		c11-18.8,26.1-33.5,45.3-44.3c19.2-10.8,40.8-16.2,64.6-16.2s45.4,5.3,64.6,16c19.2,10.7,34.3,25.4,45.3,44.1
		c11,18.8,16.5,39.8,16.5,63.2c0,23.4-5.5,44.5-16.5,63.2c-11,18.8-26.1,33.5-45.3,44.1c-19.2,10.7-40.8,16-64.6,16
		C1398.7-903.6,1377.1-909,1357.9-919.7z M1477.8-933.8c16.4-9.3,29.4-22.1,38.9-38.4c9.5-16.3,14.2-34.6,14.2-54.7
		c0-20.1-4.8-38.4-14.2-54.7s-22.5-29.1-38.9-38.4c-16.4-9.3-34.9-13.9-55.2-13.9c-20.4,0-38.9,4.6-55.4,13.9
		c-16.6,9.3-29.6,22.1-39.1,38.4c-9.5,16.3-14.2,34.6-14.2,54.7c0,20.2,4.7,38.4,14.2,54.7c9.5,16.3,22.5,29.1,39.1,38.4
		c16.6,9.3,35,13.9,55.4,13.9C1442.9-919.9,1461.3-924.5,1477.8-933.8z"/>
	<path class="st2" d="M1808.5-1148.5v243.2h-14.6l-165.7-211.2v211.2h-17.7v-243.2h14.9l165.4,211.2v-211.2H1808.5z"/>
	<path class="st2" d="M821.1-710.6c6,6.9,9,15.8,9,26.8c0,13.6-5,24-14.9,31.3s-24.6,11-44.1,11h-71.3v-160.1h66.8
		c17.4,0,30.9,3.5,40.6,10.6c9.7,7.1,14.5,17.2,14.5,30.3c0,9.1-2.4,16.8-7.2,23.1c-4.8,6.3-11.3,10.8-19.5,13.5
		C806.3-721.9,815-717.5,821.1-710.6z M711.4-791.5v63.8h54.7c14,0,24.8-2.7,32.4-8.1c7.5-5.4,11.3-13.4,11.3-23.9
		c0-10.4-3.8-18.3-11.3-23.7s-18.3-8.1-32.4-8.1H711.4z M806.4-659.7c8-5.4,12-13.8,12-25c0-11.3-4-19.6-12-24.9
		c-8-5.3-19.8-8-35.3-8h-59.7v66.1h59.7C786.7-651.6,798.4-654.3,806.4-659.7z"/>
	<path class="st2" d="M970.8-686.6h-92.8l-20.4,45H845l73.6-160.1h11.7l73.6,160.1h-12.6L970.8-686.6z M966.4-696.4l-42.1-92.4
		l-41.9,92.4H966.4z"/>
	<path class="st2" d="M1033-801.6h11.7V-652h92.2v10.5H1033L1033-801.6L1033-801.6z"/>
	<path class="st2" d="M1166.8-801.6h11.7V-652h92.2v10.5h-103.8L1166.8-801.6L1166.8-801.6z"/>
	<path class="st2" d="M1322.7-651c-12.7-7.1-22.6-16.8-29.8-29.2c-7.2-12.4-10.9-26.2-10.9-41.4c0-15.2,3.6-29,10.9-41.4
		c7.2-12.4,17.2-22.1,29.8-29.2c12.7-7.1,26.8-10.6,42.5-10.6c15.7,0,29.9,3.5,42.5,10.5c12.7,7,22.6,16.7,29.8,29
		c7.2,12.4,10.9,26.2,10.9,41.6s-3.6,29.3-10.9,41.6c-7.2,12.4-17.2,22-29.8,29c-12.7,7-26.8,10.5-42.5,10.5
		C1349.6-640.4,1335.4-643.9,1322.7-651z M1401.6-660.3c10.8-6.1,19.4-14.5,25.6-25.3c6.2-10.8,9.4-22.8,9.4-36
		c0-13.3-3.1-25.3-9.4-36s-14.8-19.2-25.6-25.3c-10.8-6.1-22.9-9.1-36.4-9.1c-13.4,0-25.6,3-36.5,9.1c-10.9,6.1-19.5,14.5-25.7,25.3
		c-6.3,10.8-9.4,22.8-9.4,36c0,13.3,3.1,25.3,9.4,36c6.2,10.8,14.8,19.2,25.7,25.3c10.9,6.1,23.1,9.1,36.5,9.1
		C1378.7-651.1,1390.8-654.2,1401.6-660.3z"/>
	<path class="st2" d="M1514.4-651c-12.7-7.1-22.6-16.8-29.8-29.2c-7.2-12.4-10.9-26.2-10.9-41.4c0-15.2,3.6-29,10.9-41.4
		c7.2-12.4,17.2-22.1,29.8-29.2c12.7-7.1,26.8-10.6,42.5-10.6c15.7,0,29.9,3.5,42.5,10.5c12.7,7,22.6,16.7,29.8,29
		c7.2,12.4,10.9,26.2,10.9,41.6s-3.6,29.3-10.9,41.6c-7.2,12.4-17.2,22-29.8,29c-12.7,7-26.8,10.5-42.5,10.5
		C1541.2-640.4,1527-643.9,1514.4-651z M1593.3-660.3c10.8-6.1,19.4-14.5,25.6-25.3c6.2-10.8,9.4-22.8,9.4-36
		c0-13.3-3.1-25.3-9.4-36s-14.8-19.2-25.6-25.3c-10.8-6.1-22.9-9.1-36.4-9.1c-13.4,0-25.6,3-36.5,9.1c-10.9,6.1-19.5,14.5-25.7,25.3
		c-6.3,10.8-9.4,22.8-9.4,36c0,13.3,3.1,25.3,9.4,36c6.2,10.8,14.8,19.2,25.7,25.3c10.9,6.1,23.1,9.1,36.5,9.1
		C1570.3-651.1,1582.4-654.2,1593.3-660.3z"/>
	<path class="st2" d="M1811-801.6v160.1h-9.6l-109.1-139v139h-11.7v-160.1h9.8l108.9,139v-139H1811z"/>
	<g>
		<path class="st2" d="M524-973.3c0-96.6-78.6-175.2-175.2-175.2s-175.2,78.6-175.2,175.2c0,2.2,0.1,4.4,0.2,6.6l-0.1,0
			c-0.2,1.6-23,158.1-55.5,221c-0.4,0.7-0.7,1.4-1.1,2c-0.3,0.7-0.7,1.3-1.1,2l0.1,0c-4.4,9.2-7,19.5-7,30.4
			c0,39.1,31.8,70.9,70.9,70.9c32.7,0,60.2-22.3,68.3-52.5c23-55,126.1-101.6,160.3-115.9c3.3-1.2,6.6-2.5,9.8-3.9
			c0.7-0.3,1.2-0.5,1.3-0.5l0-0.1C481.1-840.5,524-902,524-973.3z M348.8-1135.6c10.9,0,21.6,1.1,31.9,3.2
			c56,21.2,95.9,75.2,95.9,138.7c0,81.9-66.4,148.2-148.2,148.2c-63.4,0-117.5-39.8-138.6-95.8c-2.1-10.3-3.2-21-3.2-31.9
			C186.4-1062.8,259.3-1135.6,348.8-1135.6z M180-769.2c8.9,0,17.3,2.1,24.9,5.7c12.6,10.1,20.7,25.5,20.7,42.9
			c0,30.4-24.6,55-55,55c-17.4,0-32.8-8.1-42.9-20.7c-3.6-7.5-5.7-16-5.7-24.9c0-9.5,2.3-18.4,6.3-26.3c0.4-0.7,0.8-1.4,1.1-2.2
			C139.5-757.3,158.4-769.2,180-769.2z M250.2-720.6c-4.6-34.6-34.3-61.5-70.2-61.5c-13.6,0-26.3,3.9-37.1,10.6
			c17-47.9,30-113.4,37.2-154.6c20.7,73.7,88.4,128,168.7,128c2.2,0,4.4-0.1,6.6-0.2C318.9-779.7,274.9-752.5,250.2-720.6z"/>
		<path class="st2" d="M291.3-1093.6c-31,0-56.2,25.2-56.2,56.2c0,31,25.2,56.2,56.2,56.2c31,0,56.2-25.2,56.2-56.2
			C347.5-1068.4,322.3-1093.6,291.3-1093.6z M291.3-1089.3c3.6,0,7.2,0.4,10.6,1.1c17.8,6.9,30.5,24.1,30.5,44.3
			c0,26.3-21.3,47.6-47.6,47.6c-20.2,0-37.4-12.7-44.3-30.5c-0.7-3.4-1.1-7-1.1-10.7C239.4-1066.1,262.7-1089.3,291.3-1089.3z"/>
		<path class="st2" d="M323.9-947.2c-19.1,0-34.7,15.6-34.7,34.7s15.6,34.7,34.7,34.7s34.7-15.6,34.7-34.7S343-947.2,323.9-947.2z
			 M323.9-942.9c1.7,0,3.3,0.2,4.9,0.4c8.9,4.2,15.1,13.2,15.1,23.8c0,14.5-11.8,26.3-26.3,26.3c-10.5,0-19.5-6.2-23.8-15.2
			c-0.3-1.6-0.4-3.2-0.4-4.9C293.4-929.2,307.1-942.9,323.9-942.9z"/>
		<path class="st2" d="M407.8-1025.2c-15.9,0-28.8,12.9-28.8,28.8s12.9,28.8,28.8,28.8c15.9,0,28.8-12.9,28.8-28.8
			S423.7-1025.2,407.8-1025.2z M407.8-1020.9c1.9,0,3.7,0.2,5.5,0.6c6.8,3.7,11.4,10.7,11.4,19c0,12-9.8,21.8-21.8,21.8
			c-8.3,0-15.3-4.7-19-11.4c-0.4-1.8-0.6-3.6-0.6-5.5C383.3-1009.9,394.3-1020.9,407.8-1020.9z"/>
	</g>
</g>
</svg>
